<?xml version="1.0" standalone="no"?>
<!DOCTYPE svg PUBLIC "-//W3C//DTD SVG 20010904//EN"
 "http://www.w3.org/TR/2001/REC-SVG-20010904/DTD/svg10.dtd">
<svg version="1.0" xmlns="http://www.w3.org/2000/svg"
 width="492.000000pt" height="507.000000pt" viewBox="0 0 492.000000 507.000000"
 preserveAspectRatio="xMidYMid meet">

<g transform="translate(0.000000,507.000000) scale(0.100000,-0.100000)"
fill="#000000" stroke="none">
<path d="M1757 4719 c-378 -33 -730 -196 -995 -459 -233 -232 -373 -496 -448
-845 -13 -61 -17 -129 -17 -290 -1 -189 2 -222 26 -330 48 -225 126 -413 243
-592 175 -264 430 -477 725 -601 506 -215 1080 -163 1538 139 l75 50 53 -28
c37 -20 51 -32 47 -43 -13 -36 -23 -113 -17 -143 15 -81 12 -77 562 -646 135
-140 300 -311 366 -380 290 -304 379 -391 413 -402 97 -32 257 13 354 100 127
113 155 334 57 457 -17 21 -108 120 -203 219 -95 99 -237 250 -316 335 -290
312 -437 468 -560 592 -115 117 -130 128 -184 143 -54 16 -138 15 -181 -2 -9
-3 -15 14 -20 53 -4 31 -12 67 -17 80 -9 19 -3 36 44 116 130 219 199 432 229
709 28 255 -31 600 -144 839 -242 513 -725 860 -1287 924 -144 17 -203 18
-343 5z m370 -60 c346 -47 658 -204 911 -459 477 -479 585 -1225 267 -1850
-87 -171 -166 -279 -289 -396 -428 -405 -1034 -535 -1601 -345 -298 100 -596
322 -779 581 -148 208 -247 464 -281 720 -76 577 159 1132 621 1466 103 75
314 182 429 218 77 24 228 60 290 69 64 9 358 6 432 -4z m1103 -2649 c7 -26 4
-31 -46 -65 -30 -21 -77 -63 -105 -93 l-51 -56 -32 18 -33 17 121 119 c128
125 127 125 146 60z m267 -82 c28 -14 84 -65 151 -137 216 -233 581 -621 762
-811 291 -303 317 -334 331 -392 16 -68 5 -140 -31 -215 -47 -95 -129 -153
-249 -175 -112 -21 -114 -20 -511 397 -63 66 -173 181 -245 255 -396 411 -569
593 -612 645 -47 57 -48 60 -48 124 0 86 29 146 109 226 74 73 141 103 235
104 47 1 76 -5 108 -21z"/>
<path d="M1740 4604 c-222 -42 -334 -76 -472 -144 -53 -27 -137 -74 -185 -107
-110 -72 -309 -269 -386 -380 -412 -592 -336 -1408 179 -1918 329 -326 795
-482 1254 -420 336 45 607 179 846 419 136 137 218 251 299 421 97 201 134
351 142 581 7 196 -6 314 -53 476 -150 522 -594 930 -1145 1053 -72 16 -421
30 -479 19z m443 -75 c394 -72 729 -296 954 -638 97 -148 163 -308 205 -498
28 -130 30 -402 4 -538 -72 -367 -269 -685 -559 -900 -166 -125 -353 -208
-577 -257 -128 -29 -411 -31 -544 -4 -276 54 -532 185 -725 371 -252 242 -390
509 -441 850 -32 211 -22 385 35 593 154 570 668 995 1260 1042 123 10 259 3
388 -21z"/>
<path d="M1850 4193 c-295 -30 -522 -135 -706 -325 -321 -331 -400 -793 -205
-1202 64 -134 110 -200 212 -303 206 -207 480 -323 766 -323 256 0 458 68 661
222 221 168 373 419 417 693 20 121 19 211 -5 347 -53 309 -241 582 -513 742
-140 83 -246 119 -416 141 -103 14 -139 16 -211 8z m330 -118 c185 -50 341
-144 467 -280 128 -138 200 -272 250 -464 22 -87 24 -109 20 -241 -6 -156 -23
-236 -82 -370 -91 -208 -280 -400 -490 -501 -134 -63 -210 -81 -381 -86 -172
-6 -264 8 -395 58 -257 99 -475 312 -579 566 -49 121 -65 213 -65 368 1 150
17 238 69 366 61 152 199 326 337 426 115 84 297 158 449 183 98 16 294 4 400
-25z"/>
<path d="M1175 3366 c-58 -27 -107 -78 -126 -133 -8 -21 -14 -78 -14 -128 0
-102 17 -145 77 -201 71 -66 45 -64 812 -64 673 0 695 1 739 20 105 47 156
151 143 293 -7 78 -30 128 -78 174 -67 64 -49 63 -812 63 l-691 0 -50 -24z
m1475 -64 c19 -9 45 -32 57 -51 20 -30 23 -47 23 -134 0 -88 -3 -105 -22 -135
-47 -69 -51 -69 -463 -72 -203 -2 -517 -2 -696 -1 -321 1 -327 1 -360 24 -63
43 -79 78 -79 182 0 104 16 139 79 182 l34 23 696 0 c643 0 699 -1 731 -18z"/>
</g>
</svg>
